# AST/ASF file generated using VICON BodyLanguage
# -----------------------------------------------
:version 1.10
:name VICON
:units
  mass 1.0
  length 0.45
  angle deg
:documentation
   .ast/.asf automatically generated from VICON data using
   VICON BodyBuilder and BodyLanguage model FoxedUp or BRILLIANT.MOD
:root
   order TX TY TZ RX RY RZ
   axis XYZ
   position 0 0 0  
   orientation 0 -0 0 
:bonedata
  begin
     id 1 
     name lhipjoint
     direction 0.432694 -0.693742 0.575759 
     length 2.19277 
     axis 0 -0 0  XYZ
  end
  begin
     id 2 
     name lfemur
     direction 0.34202 -0.939693 0  
     length 6.69022  
     axis 0 -0 20  XYZ
    dof rx ry rz
    limits (-160.0 20.0)
           (-70.0 70.0)
           (-60.0 70.0)
  end
  begin
     id 3 
     name ltibia
     direction 0.34202 -0.939693 0   
     length 6.50337   
     axis 0 -0 20   XYZ
    dof rx
    limits (-10.0 170.0)
  end
  begin
     id 4 
     name lfoot
     direction 0.158999 -0.435969 0.885805   
     length 2.70564   
     axis -90 -1.13533e-015 20   XYZ
    dof rx rz
    limits (-45.0 90.0)
           (-70.0 20.0)
  end
  begin
     id 5 
     name ltoes
     direction -0.00592919 0.00964381 0.999936   
     length 1.29929   
     axis -90 -1.13533e-015 20   XYZ
    dof rx
    limits (-90.0 20.0)
  end
  begin
     id 6 
     name rhipjoint
     direction -0.414359 -0.700339 0.581234   
     length 2.17212  
     axis 0 -0 0  XYZ 
  end
  begin
     id 7 
     name rfemur
     direction -0.34202 -0.939693 0   
     length 7.17659   
     axis 0 -0 -20   XYZ
    dof rx ry rz
    limits (-160.0 20.0)
           (-70.0 70.0)
           (-70.0 60.0)
  end
  begin
     id 8 
     name rtibia
     direction -0.34202 -0.939693 0   
     length 6.36669   
     axis 0 -0 -20   XYZ
    dof rx
    limits (-10.0 170.0)
 end
 begin
     id 9 
     name rfoot
     direction -0.137064 -0.37658 0.916188   
     length 2.22351  
     axis -90 1.13533e-015 -20   XYZ
    dof rx rz
    limits (-45.0 90.0)
           (-20.0 70.0)
  end
  begin
     id 10 
     name rtoes
     direction -0.000784077 -0.00289101 0.999996   
     length 1.09522   
     axis -90 1.13533e-015 -20   XYZ
    dof rx
    limits (-90.0 20.0)
  end
  begin
     id 11 
     name lowerback
     direction -0.0176242 0.984912 -0.172157   
     length 1.65301   
     axis 0 -0 0   XYZ
    dof rx ry rz
    limits (-20.0 45.0)
           (-30.0 30.0)
           (-30.0 30.0)
  end
  begin
     id 12 
     name upperback
     direction -0.00218128 0.998776 -0.0494072   
     length 1.67776   
     axis 0 -0 0   XYZ
    dof rx ry rz
    limits (-20.0 45.0)
           (-30.0 30.0)
           (-30.0 30.0)
  end
  begin
     id 13 
     name thorax
     direction 0.00544186 0.999658 0.0255711   
     length 1.72293   
     axis 0 -0 0   XYZ
    dof rx ry rz
    limits (-20.0 45.0)
           (-30.0 30.0)
           (-30.0 30.0)
  end
  begin
     id 14 
     name lowerneck
     direction -0.105325 0.983841 0.144785   
     length 2.14226   
     axis 0 -0 0   XYZ
    dof rx ry rz
    limits (-20.0 45.0)
           (-30.0 30.0)
           (-30.0 30.0)
  end
  begin
     id 15 
     name upperneck
     direction 0.0547957 0.988053 -0.144041   
     length 2.17508   
     axis 0 -0 0   XYZ
    dof rx ry rz
    limits (-20.0 45.0)
           (-30.0 30.0)
           (-30.0 30.0)
  end
  begin
     id 16
     name head
     direction 0.0247488 0.997534 -0.0656813  
     length 2.20048  
     axis 0 -0 0   XYZ
    dof rx ry rz
    limits (-20.0 45.0)
           (-30.0 30.0)
           (-30.0 30.0)
  end
  begin
     id 17 
     name lclavicle
     direction 0.820559 0.567247 -0.0701026  
     length 4.09615  
     axis 0 -0 0   XYZ
    dof ry rz
    limits (-20.0 10.0)
           (0.0 20.0)
  end
  begin
     id 18 
     name lhumerus
     direction 0.999977 -0.0067566 -9.96392e-005   
     length 4.59333   
     axis -180 -30 -90   XYZ
    dof rx ry rz
    limits (-60.0 90.0)
           (-90.0 90.0)
           (-90.0 90.0)
  end
  begin
     id 19
     name lradius
     direction 1 -4.48982e-011 -2.53425e-027   
     length 2.81151   
     axis -180 -30 -90   XYZ
    dof rx
    limits (-10.0 170.0)
  end
  begin
     id 20
     name lwrist
     direction 1 -4.48939e-011 -7.39254e-028   
     length 1.40576   
     axis 2.56395e-016 90 90   XYZ
    dof ry
    limits (-180.0 0.0)
 end
  begin
     id 21 
     name lhand
     direction 1 -4.48939e-011 -1.47851e-027   
     length 0.895651   
     axis 9.43423e-016 90 90   XYZ
    dof rx rz
    limits (-90.0 90.0)
           (-45.0 45.0)
  end
  begin
     id 22 
     name lfingers
     direction 1 -4.48978e-011 -2.95702e-027   
     length 0.722097   
     axis 1.88685e-015 90 90   XYZ
    dof rx
    limits (0.0 90.0)
  end
  begin
     id 23
     name lthumb
     direction 0.707107 -6.34931e-011 0.707107   
     length 1.03679   
     axis -90 45 -9.86935e-015   XYZ
    dof rx rz
    limits (-45.0 45.0)
           (-45.0 45.0)
  end
  begin
     id 24 
     name rclavicle
     direction -0.831414 0.553102 -0.0531864   
     length 4.24872  
     axis 0 -0 0   XYZ 
    dof ry rz
    limits (-10.0 20.0)
           (-20.0 0.0)
  end
  begin
     id 25 
     name rhumerus
     direction -0.999916 -0.000939607 0.0129331  
     length 4.74834   
     axis -180 30 90   XYZ
    dof rx ry rz
    limits (-90.0 60.0)
           (-90.0 90.0)
           (-90.0 90.0)
  end
  begin
     id 26 
     name rradius
     direction -1 -4.48956e-011 -1.31752e-027   
     length 2.79907   
     axis -180 30 90   XYZ
    dof rx
    limits (-10.0 170.0)
  end
  begin
     id 27 
     name rwrist
     direction -1 -4.4897e-011 -7.39254e-028   
     length 1.39954   
     axis 2.56395e-016 -90 -90   XYZ
    dof ry
    limits (-180.0 0.0)
  end
  begin
     id 28
     name rhand
     direction -0.999997 -0.00250697 0.000800838   
     length 0.953304   
     axis 9.43423e-016 -90 -90   XYZ
    dof rx rz
    limits (-90.0 90.0)
           (-45.0 45.0)
  end
  begin
     id 29
     name rfingers
     direction -1 -4.48954e-011 -2.95702e-027   
     length 0.763342   
     axis 1.88685e-015 -90 -90   XYZ
    dof rx
    limits (0.0 90.0)
  end
  begin
     id 30
     name rthumb
     direction -0.709701 -0.00217037 0.7045   
     length 1.10115   
     axis -90 -45 9.86935e-015   XYZ
    dof rx rz
    limits (-45.0 45.0)
           (-45.0 45.0)
  end
:hierarchy
  begin
    root lhipjoint rhipjoint lowerback
    lhipjoint lfemur
    lfemur ltibia
    ltibia lfoot
    lfoot ltoes
    rhipjoint rfemur
    rfemur rtibia
    rtibia rfoot
    rfoot rtoes
    lowerback upperback
    upperback thorax
    thorax lowerneck lclavicle rclavicle
    lowerneck upperneck
    upperneck head
    lclavicle lhumerus
    lhumerus lradius
    lradius lwrist
    lwrist lhand lthumb
    lhand lfingers
    rclavicle rhumerus
    rhumerus rradius
    rradius rwrist
    rwrist rhand rthumb
    rhand rfingers
  end

#!OML:ASF G:\ViconDB\ViconDB\414\test\team2\shane.ASF
:FULLY-SPECIFIED
:DEGREES
48
root 5.07794 16.029 -29.2566 -3.88145 -3.22897 -3.57901
lowerback 8.5673 6.10047 5.14926
upperback 3.61182 8.47636 -3.52617
thorax 0.29741 4.37895 -7.15534
lowerneck -14.9304 -10.6881 -11.5482
upperneck 16.4267 -15.8598 17.6699
head 10.1479 -6.52014 5.75658
rclavicle 7.67309e-014 -2.54444e-014
rhumerus -14.5779 15.292 -96.8043
rradius 31.3126
rwrist 37.2728
rhand -32.9867 -14.6319
rfingers 7.12502
rthumb -6.20139 -44.5211
lclavicle 7.67309e-014 -2.54444e-014
lhumerus -39.4858 -15.7982 85.8115
lradius 24.0549
lwrist -17.283
lhand -38.8181 8.1202
lfingers 7.12502
lthumb -11.8282 37.7662
rfemur 38.4148 -5.33418 17.6637
rtibia -3.49861e-014
rfoot -11.152 -2.22513
rtoes -27.3917
lfemur -27.3158 3.04559 -11.4574
ltibia 46.972
lfoot -21.6885 -9.75563
ltoes -4.3649
49
root 5.10309 16.0614 -29.0623 -3.94283 -3.16833 -3.68555
lowerback 8.4152 6.13687 5.0317
upperback 3.64798 8.5109 -3.50285
thorax 0.402373 4.39871 -7.04482
lowerneck -14.77 -10.7616 -11.7388
upperneck 16.373 -15.9915 17.9397
head 10.1669 -6.57939 5.86629
rclavicle -7.55382e-015 0
rhumerus -15.6179 15.7145 -96.8463
rradius 30.479
rwrist 37.0747
rhand -32.5611 -14.6814
rfingers 7.12502
rthumb -5.79051 -44.5823
lclavicle -7.55382e-015 0
lhumerus -38.5733 -14.0891 85.4228
lradius 22.9773
lwrist -18.2871
lhand -39.1428 7.18618
lfingers 7.12502
lthumb -12.1414 36.8139
rfemur 38.8444 -5.07989 17.7443
rtibia -5.08889e-014
rfoot -8.49684 -2.11596
rtoes -27.921
lfemur -26.4822 3.37679 -11.4943
ltibia 46.9418
lfoot -21.9208 -10.0293
ltoes -3.87742
50
root 5.12935 16.0941 -28.8672 -3.98436 -3.12105 -3.67701
lowerback 8.33328 6.14575 5.01821
upperback 3.61348 8.51899 -3.65169
thorax 0.434598 4.40594 -7.18543
lowerneck -14.614 -10.8293 -11.8526
upperneck 16.4059 -16.1712 18.299
head 10.2298 -6.64457 5.98966
rclavicle 1.35174e-013 -3.81667e-014
rhumerus -16.5513 15.3119 -97.1017
rradius 29.3229
rwrist 37.6754
rhand -32.1082 -14.2018
rfingers 7.12502
rthumb -5.35324 -44.1142
lclavicle 1.35174e-013 -3.81667e-014
lhumerus -37.8598 -12.5496 84.9063
lradius 22.383
lwrist -18.6951
lhand -38.9755 7.42496
lfingers 7.12502
lthumb -11.98 37.0621
rfemur 39.1634 -4.81023 17.7177
rtibia 0
rfoot -5.35331 -2.03558
rtoes -28.0964
lfemur -25.6707 3.73374 -11.6924
ltibia 46.8693
lfoot -22.513 -9.98996
ltoes -4.23321
51
root 5.1522 16.1237 -28.6723 -3.99334 -2.95684 -3.7289
lowerback 8.02058 6.11796 4.77621
upperback 3.68383 8.45476 -3.6556
thorax 0.633074 4.37821 -7.0081
lowerneck -14.6771 -10.8595 -11.9516
upperneck 16.5754 -16.2836 18.5654
head 10.3606 -6.66793 6.08514
rclavicle -5.68524e-014 3.49861e-014
rhumerus -17.4345 15.3321 -97.2439
rradius 28.2657
rwrist 38.0301
rhand -31.6834 -13.8353
rfingers 7.12502
rthumb -4.943 -43.7576
lclavicle -5.68524e-014 3.49861e-014
lhumerus -37.2653 -11.1646 84.7239
lradius 21.9091
lwrist -18.8533
lhand -38.9789 7.69355
lfingers 7.12502
lthumb -11.9833 37.3305
rfemur 39.4752 -4.67035 17.762
rtibia -6.99722e-014
rfoot -1.9686 -1.85117
rtoes -27.2146
lfemur -24.8761 4.37107 -11.8046
ltibia 46.7894
lfoot -23.1217 -10.5191
ltoes -4.25088
52
root 5.18228 16.1506 -28.4823 -4.02135 -2.63179 -3.80032
lowerback 7.81291 5.99673 4.68649
upperback 3.75272 8.28167 -3.69572
thorax 0.784849 4.29742 -6.96362
lowerneck -14.8126 -10.906 -11.9318
upperneck 16.7834 -16.432 18.7596
head 10.5078 -6.70061 6.1264
rclavicle -6.22196e-014 3.18055e-014
rhumerus -18.234 14.9318 -97.3832
rradius 27.272
rwrist 38.5663
rhand -31.0607 -13.5881
rfingers 7.12502
rthumb -4.34171 -43.5236
lclavicle -6.22196e-014 3.18055e-014
lhumerus -36.5744 -9.51485 84.3308
lradius 21.3185
lwrist -19.4308
lhand -39.0062 7.56193
lfingers 7.12502
lthumb -12.0096 37.1974
rfemur 34.7439 -4.84452 17.6672
rtibia 10.9129
rfoot -3.99996 -2.50444
rtoes -26.5396
lfemur -24.1505 4.60723 -11.9254
ltibia 46.7445
lfoot -23.7024 -10.8006
ltoes -4.36851
53
root 5.20437 16.1829 -28.2917 -4.11429 -2.29577 -3.8157
lowerback 7.7191 5.87859 4.4345
upperback 3.79386 8.10419 -3.6678
thorax 0.810332 4.20425 -6.77566
lowerneck -14.8109 -10.9387 -12.1387
upperneck 16.99 -16.5403 19.0362
head 10.6522 -6.73023 6.24953
rclavicle 4.49253e-014 3.02153e-014
rhumerus -19.2104 14.5178 -97.4335
rradius 26.4297
rwrist 39.278
rhand -30.5221 -13.3511
rfingers 7.12502
rthumb -3.8216 -43.2966
lclavicle 4.49253e-014 3.02153e-014
lhumerus -36.1838 -8.21505 84.2992
lradius 20.8041
lwrist -19.3046
lhand -39.1671 6.99736
lfingers 7.12502
lthumb -12.1648 36.6237
rfemur 31.4852 -5.51093 17.1865
rtibia 18.665
rfoot -4.24818 -2.40585
rtoes -26.0402
lfemur -23.3614 4.83348 -12.0163
ltibia 46.6799
lfoot -24.1751 -11.4721
ltoes -3.98744
54
root 5.23421 16.208 -28.1037 -4.21935 -2.08683 -3.99507
lowerback 7.72301 5.74916 4.49304
upperback 3.81207 7.936 -3.60467
thorax 0.800469 4.11967 -6.73588
lowerneck -14.8046 -10.9454 -12.3329
upperneck 17.1887 -16.592 19.2272
head 10.7725 -6.74192 6.35051
rclavicle 2.40529e-014 -1.27222e-014
rhumerus -20.2169 13.8591 -97.3867
rradius 25.7577
rwrist 40.1658
rhand -29.8926 -12.9335
rfingers 7.12502
rthumb -3.21377 -42.889
lclavicle 2.40529e-014 -1.27222e-014
lhumerus -35.7595 -7.05122 84.3821
lradius 20.3017
lwrist -19.364
lhand -39.254 6.97401
lfingers 7.12502
lthumb -12.2486 36.5953
rfemur 28.9381 -6.12188 16.8559
rtibia 24.7042
rfoot -3.17805 -2.05591
rtoes -23.8851
lfemur -22.5187 5.24035 -11.9252
ltibia 46.6249
lfoot -24.7642 -11.8881
ltoes -3.89117
55
root 5.26194 16.2316 -27.9209 -4.24003 -1.68149 -3.77806
lowerback 7.62761 5.57413 4.04324
upperback 3.86169 7.66951 -3.6283
thorax 0.805482 3.97817 -6.48893
lowerneck -14.947 -10.9558 -12.4156
upperneck 17.4561 -16.648 19.31
head 10.9251 -6.74619 6.38867
rclavicle -5.50634e-014 1.11319e-014
rhumerus -21.1996 13.2182 -97.3347
rradius 25.2973
rwrist 40.909
rhand -29.331 -12.8051
rfingers 7.12502
rthumb -2.67133 -42.7681
lclavicle -5.50634e-014 1.11319e-014
lhumerus -35.2998 -6.3617 84.783
lradius 20.0478
lwrist -18.2918
lhand -38.9792 7.29621
lfingers 7.12502
lthumb -11.9836 36.9332
rfemur 26.5224 -6.89662 16.1108
rtibia 30.0988
rfoot -1.6005 -2.20364
rtoes -21.6612
lfemur -21.8048 5.2335 -12.3478
ltibia 46.5346
lfoot -25.2478 -11.9921
ltoes -3.88901
56
root 5.28778 16.2498 -27.7342 -4.33149 -1.40214 -3.80564
lowerback 7.47094 5.4001 3.77548
upperback 3.96365 7.4173 -3.53992
thorax 0.913294 3.84945 -6.21521
lowerneck -15.0437 -10.9083 -12.4749
upperneck 17.6579 -16.6068 19.354
head 11.0206 -6.71386 6.42757
rclavicle -4.47266e-014 2.22639e-014
rhumerus -22.1988 12.6631 -97.2241
rradius 24.9944
rwrist 41.7053
rhand -28.6917 -12.5226
rfingers 7.12502
rthumb -2.05391 -42.4925
lclavicle -4.47266e-014 2.22639e-014
lhumerus -35.0497 -5.7097 85.2258
lradius 19.9517
lwrist -18.0188
lhand -38.8809 7.91246
lfingers 7.12502
lthumb -11.8888 37.5549
rfemur 24.306 -7.85412 15.4978
rtibia 35.076
rfoot 0.0740383 -2.25979
rtoes -19.096
lfemur -21.0412 5.54168 -12.4681
ltibia 46.4257
lfoot -25.7709 -12.2383
ltoes -4.05045
57
root 5.32065 16.266 -27.5567 -4.39593 -1.24272 -3.58429
lowerback 7.50616 5.24018 3.47218
upperback 3.99872 7.18474 -3.57143
thorax 0.863514 3.726 -6.0738
lowerneck -15.0729 -10.858 -12.7012
upperneck 17.7989 -16.5714 19.6086
head 11.1231 -6.68303 6.57511
rclavicle 1.03368e-014 1.90833e-014
rhumerus -23.2489 12.3487 -97.2199
rradius 24.7868
rwrist 41.7686
rhand -28.456 -12.2666
rfingers 7.12502
rthumb -1.82636 -42.2385
lclavicle 1.03368e-014 1.90833e-014
lhumerus -34.634 -4.80087 85.4245
lradius 19.526
lwrist -18.2021
lhand -38.9941 7.61058
lfingers 7.12502
lthumb -11.9979 37.2467
rfemur 22.077 -8.58546 14.7203
rtibia 39.7171
rfoot 2.09822 -2.31931
rtoes -14.2816
lfemur -20.2145 5.52524 -12.8051
ltibia 46.3241
lfoot -26.2301 -12.2592
ltoes -3.96324
58
root 5.34846 16.2785 -27.3722 -4.46345 -1.0429 -3.26639
lowerback 7.33572 5.08196 2.93339
upperback 4.11516 6.93831 -3.564
thorax 0.977542 3.59559 -5.73291
lowerneck -15.201 -10.8148 -12.7903
upperneck 17.9698 -16.516 19.6368
head 11.2121 -6.64746 6.61459
rclavicle -9.26337e-014 1.59028e-014
rhumerus -24.266 12.1767 -97.079
rradius 24.796
rwrist 42.3787
rhand -28.1009 -12.4825
rfingers 7.12502
rthumb -1.48333 -42.4571
lclavicle -9.26337e-014 1.59028e-014
lhumerus -34.2668 -4.49049 85.9929
lradius 19.4265
lwrist -17.6445
lhand -38.8628 7.62631
lfingers 7.12502
lthumb -11.8713 37.2698
rfemur 19.9715 -9.50315 13.7907
rtibia 43.9734
rfoot 4.08638 -2.63096
rtoes -10.9379
lfemur -19.4041 5.55145 -13.2859
ltibia 46.2455
lfoot -26.7742 -12.179
ltoes -4.21797
59
root 5.37987 16.2832 -27.1968 -4.5831 -0.927758 -3.14824
lowerback 7.34412 4.87952 2.87782
upperback 4.19718 6.66655 -3.61923
thorax 1.02542 3.46179 -5.74523
lowerneck -15.0934 -10.739 -12.997
upperneck 17.9838 -16.4417 19.9098
head 11.2339 -6.6103 6.77546
rclavicle 1.5704e-014 -2.06736e-014
rhumerus -25.4137 12.8616 -97.4044
rradius 25.1618
rwrist 41.1918
rhand -27.8064 -12.8027
rfingers 7.12502
rthumb -1.19896 -42.7791
lclavicle 1.5704e-014 -2.06736e-014
lhumerus -34.0455 -4.27413 86.4001
lradius 19.4353
lwrist -17.6427
lhand -39.0022 7.5981
lfingers 7.12502
lthumb -12.0057 37.2338
rfemur 18.0022 -10.2661 13.1746
rtibia 47.9573
rfoot 4.81227 -3.24784
rtoes -8.88131
lfemur -18.5861 5.56325 -13.5195
ltibia 46.2096
lfoot -27.2633 -12.0543
ltoes -4.40524
60
root 5.40978 16.2865 -27.0206 -4.69842 -0.897921 -2.83316
lowerback 7.32943 4.72778 2.47464
upperback 4.27543 6.44007 -3.67847
thorax 1.04767 3.34185 -5.5681
lowerneck -15.2162 -10.647 -12.8456
upperneck 18.1573 -16.3481 19.8342
head 11.2806 -6.55057 6.7427
rclavicle 4.17448e-015 -2.70347e-014
rhumerus -26.4565 13.041 -97.537
rradius 25.2782
rwrist 40.9365
rhand -27.8096 -12.888
rfingers 7.12502
rthumb -1.20204 -42.8644
lclavicle 4.17448e-015 -2.70347e-014
lhumerus -33.7405 -4.61564 87.1046
lradius 19.4114
lwrist -17.1996
lhand -39.0664 7.78959
lfingers 7.12502
lthumb -12.0677 37.4216
rfemur 16.0993 -11.0103 12.3605
rtibia 51.6359
rfoot 4.26217 -4.67056
rtoes -8.80667
lfemur -17.8008 5.81017 -13.9895
ltibia 46.1928
lfoot -27.81 -11.9492
ltoes -4.63117
61
root 5.43615 16.2857 -26.8467 -4.89407 -0.785684 -2.61297
lowerback 7.32681 4.48825 2.10462
upperback 4.43764 6.10073 -3.65272
thorax 1.13466 3.16686 -5.31218
lowerneck -15.2079 -10.519 -13.0859
upperneck 18.1467 -16.1772 20.1167
head 11.2975 -6.46624 6.92928
rclavicle -4.09496e-014 3.18055e-014
rhumerus -27.3817 13.7682 -97.617
rradius 25.4038
rwrist 40.8642
rhand -28.0276 -12.8828
rfingers 7.12502
rthumb -1.41255 -42.8579
lclavicle -4.09496e-014 3.18055e-014
lhumerus -33.529 -5.18468 87.9989
lradius 19.715
lwrist -15.9986
lhand -39.3084 7.91548
lfingers 7.12502
lthumb -12.301 37.5337
rfemur 14.2999 -11.8617 11.6792
rtibia 55.0422
rfoot 2.79262 -6.06586
rtoes -9.8977
lfemur -16.903 5.75678 -14.2747
ltibia 46.197
lfoot -28.2327 -11.8955
ltoes -4.65581
62
root 5.4675 16.2803 -26.6777 -5.10797 -0.880301 -2.36209
lowerback 7.35406 4.28858 1.82141
upperback 4.61001 5.82065 -3.65592
thorax 1.2391 3.02417 -5.13927
lowerneck -15.3382 -10.3751 -13.0225
upperneck 18.2472 -15.9621 20.011
head 11.2989 -6.36327 6.92073
rclavicle -4.83047e-014 9.54166e-015
rhumerus -28.2074 14.2914 -97.6376
rradius 25.4956
rwrist 40.8746
rhand -28.1215 -12.9356
rfingers 7.12502
rthumb -1.50325 -42.91
lclavicle -4.83047e-014 9.54166e-015
lhumerus -33.0082 -5.16932 88.5221
lradius 19.602
lwrist -16.1847
lhand -39.2938 7.89312
lfingers 7.12502
lthumb -12.2869 37.5121
rfemur 12.4759 -12.3612 11.0306
rtibia 58.196
rfoot 0.943292 -7.00882
rtoes -9.97284
lfemur -16.0354 5.99504 -14.6062
ltibia 46.2397
lfoot -28.6145 -11.7486
ltoes -4.97249
